<?xml version="1.0" encoding="utf-8"?>
<!-- Generator: Adobe Illustrator 17.0.0, SVG Export Plug-In . SVG Version: 6.00 Build 0)  -->
<!DOCTYPE svg PUBLIC "-//W3C//DTD SVG 1.1//EN" "http://www.w3.org/Graphics/SVG/1.1/DTD/svg11.dtd">
<svg version="1.1" id="Layer_1" xmlns="http://www.w3.org/2000/svg" xmlns:xlink="http://www.w3.org/1999/xlink" x="0px" y="0px"
	 width="29px" height="34px" viewBox="0 0 29 34" enable-background="new 0 0 29 34" xml:space="preserve">
<polygon fill="#FFFFFF" points="13.949,25.26 14.927,24.824 14.927,30.235 13.949,30.668 "/>
<polygon fill="#FFFFFF" points="19.314,25.26 20.293,24.805 20.293,30.226 19.314,30.683 "/>
<path fill-rule="evenodd" clip-rule="evenodd" fill="#FFFFFF" d="M17.277,29.429c0,0,0.574,0.31,0.85,0.851
	c0,0-2.202,1.395-2.421,0.889C15.706,31.17,15.299,30.825,17.277,29.429 M16.535,31.958c-1.867,0.752-1.519-0.992-1.519-0.992
	c0-0.6,1.524-2.147,1.524-2.147v-0.956c0,0,2.347,1.409,2.347,2.202v0.476c0,0,0.003,0.282-0.522,0.512L16.535,31.958z"/>
<path fill-rule="evenodd" clip-rule="evenodd" fill="#FFFFFF" d="M25.047,28.536v1.091l-7.66,3.606v-1.093l5.16-2.426v-0.615
	c-1.867,0.752-1.517-0.993-1.517-0.993c0-0.6,1.523-2.146,1.523-2.146v-0.957c0,0,2.348,1.409,2.348,2.203v0.476
	c0,0,0.003,0.283-0.524,0.512l-1.378,0.723v0.584 M22.547,27.162l0.004,1.154c0,0-1.297,0.353-0.812-0.334L22.547,27.162z
	 M22.982,28.11v-1.308c0,0,0.829,0.091,0.93,0.476C23.912,27.278,24.123,27.656,22.982,28.11"/>
<path fill-rule="evenodd" clip-rule="evenodd" fill="#FFFFFF" d="M9.349,31.201c-0.545,0.25-3.19,1.495-3.19,1.495
	s-1.71,0.832-2.107-0.607c0,0-0.514-1.53,0.797-2.154l2.996-1.416V29.6l-2.77,1.335c-0.586,0.279-0.415,0.738-0.415,0.738
	c0.12,0.485,0.878,0.244,0.878,0.244l3.345-1.585L8.876,25.26l0.978-0.422v5.58C9.854,30.418,9.894,30.951,9.349,31.201"/>
<path fill-rule="evenodd" clip-rule="evenodd" fill="#FFFFFF" d="M12.894,30.769L9.87,32.186v-1.097l3.077-1.447l-0.003-0.4
	c0,0-2.816,1.681-2.677,0.016c0,0-0.169-1.612,1.003-1.871c0,0,1.725-0.3,2.381,1.992C13.652,29.38,13.82,30.44,12.894,30.769
	 M12.134,28.603l-1.23,0.478c0,0-0.184-0.532,0.278-0.704C11.182,28.377,11.961,28.134,12.134,28.603"/>
<path fill-rule="evenodd" clip-rule="evenodd" fill="#FFFFFF" d="M15.171,18.53c7.798-2.154,13.669-5.531,13.109-7.542
	c-0.321-1.154-2.69-1.607-6.124-1.376l-0.062,0.05L21.92,9.808c2.283-0.034,3.811,0.364,4.044,1.205
	c0.47,1.692-4.47,4.534-11.032,6.347C8.37,19.172,2.666,19.27,2.196,17.578c-0.224-0.805,0.778-1.871,2.596-2.962
	c0.086-0.052,0.172-0.104,0.258-0.154c0.078-0.12,0.16-0.237,0.247-0.361c-0.033,0.016-0.18,0.097-0.213,0.113
	c-3.371,1.643-5.386,3.359-5.048,4.576C0.596,20.8,7.373,20.684,15.171,18.53"/>
<path fill-rule="evenodd" clip-rule="evenodd" fill="#FFFFFF" d="M14.345,5.89c-6.76,4.672-11.253,9.864-10.032,11.595
	c0.878,1.245,4.473,0.361,8.937-1.971v-0.225c-3.395,1.667-6.064,2.244-6.751,1.269c-1.027-1.457,2.753-5.827,8.442-9.758
	c5.69-3.931,11.137-5.938,12.165-4.481c0.818,1.16-1.388,4.194-5.225,7.327l-0.2,0.163l0.249-0.001
	c4.931-3.949,7.888-7.8,6.87-9.244C27.579-1.167,21.106,1.218,14.345,5.89"/>
</svg>
