<?xml version="1.0" encoding="utf-8"?>
<!-- Generator: Adobe Illustrator 17.0.0, SVG Export Plug-In . SVG Version: 6.00 Build 0)  -->
<!DOCTYPE svg PUBLIC "-//W3C//DTD SVG 1.1//EN" "http://www.w3.org/Graphics/SVG/1.1/DTD/svg11.dtd">
<svg version="1.1" id="Layer_1" xmlns="http://www.w3.org/2000/svg" xmlns:xlink="http://www.w3.org/1999/xlink" x="0px" y="0px"
	 width="140px" height="116px" viewBox="0 0 140 116" enable-background="new 0 0 140 116" xml:space="preserve">
<g>
	<path fill="#FFFFFF" d="M52.71,84.915c-0.498,0.708-0.626,1.609-0.339,2.426l3.871,10.921c0.373,1.067,1.382,1.774,2.507,1.774
		h46.412c1.471,0,2.664-1.186,2.664-2.659s-1.193-2.664-2.664-2.664H60.634l-1.98-5.591h49.236c1.163,0,2.19-0.756,2.54-1.865
		l10.788-34.083h15.794c1.471,0,2.664-1.193,2.664-2.666c0-1.471-1.193-2.664-2.664-2.664h-17.748c-1.16,0-2.19,0.752-2.54,1.861
		l-3.369,10.648H52.788c-0.866,0-1.679,0.418-2.176,1.125c-0.502,0.708-0.626,1.609-0.339,2.426l7.036,19.886h-2.426
		C54.017,83.79,53.207,84.208,52.71,84.915z M100.786,83.79l3.343-18.112h7.538l-5.729,18.112H100.786z M90.771,83.79l0.67-18.112
		h7.272L95.37,83.79H90.771z M78.887,65.678h7.219L85.438,83.79h-4.559L78.887,65.678z M66.477,65.678h7.048l1.994,18.112h-4.415
		L66.477,65.678z M56.556,65.678h4.426l4.627,18.112h-2.65L56.556,65.678z"/>
	<path fill="#FFFFFF" d="M91.415,109.202c0,3.751,3.044,6.798,6.796,6.798c3.756,0,6.798-3.046,6.798-6.798
		s-3.044-6.794-6.798-6.794C94.457,102.408,91.415,105.45,91.415,109.202z M96.423,109.199c0-0.985,0.8-1.788,1.788-1.788
		c0.99,0,1.791,0.803,1.791,1.788c0,0.99-0.801,1.793-1.791,1.793C97.223,110.992,96.423,110.192,96.423,109.199z"/>
	<path fill="#FFFFFF" d="M60.085,109.202c0,3.751,3.042,6.798,6.794,6.798c3.752,0,6.794-3.046,6.794-6.798
		s-3.042-6.794-6.794-6.794C63.127,102.408,60.085,105.45,60.085,109.202z M65.091,109.199c0-0.985,0.798-1.788,1.788-1.788
		c0.988,0,1.786,0.803,1.786,1.788c0,0.99-0.798,1.793-1.786,1.793S65.093,110.192,65.091,109.199z"/>
	<path fill="#FFFFFF" d="M-0.398,44.718c0,24.644,20.049,44.689,44.686,44.689c1.459,0,2.906-0.072,4.328-0.21
		c-1.665-6.114,4.2-8.066,4.286-8.094c0.004-0.005,0.004-0.009,0.009-0.014l-1.905-4.728c-2.085,6.175-4.593,9.576-6.717,9.576
		c-3.234,0-7.368-7.846-9.516-21.466h11.563c-0.226-1.345,0.009-2.498,0.516-3.469H34.285c-0.536-4.366-0.88-9.231-0.938-14.547
		h21.887c-0.04,3.53-0.215,6.838-0.474,9.955h3.46c0.273-3.28,0.441-6.621,0.483-9.955h13.884c-0.098,3.451-0.511,6.775-1.16,9.955
		h3.525c0.619-3.194,1.014-6.518,1.107-9.955h9.408c-0.145,3.446-0.719,6.778-1.66,9.955h3.614c1.01-3.728,1.559-7.646,1.559-11.689
		c0-24.642-20.05-44.691-44.689-44.691C19.65,0.03-0.4,20.077-0.398,44.718z M6.347,28.615h8.29
		c-1.24,4.487-1.977,9.322-2.115,14.369H3.116C3.326,37.904,4.456,33.059,6.347,28.615z M26.836,7.388
		c-4.749,4.398-8.61,10.529-11.127,17.752H8.026C12.221,17.397,18.833,11.147,26.836,7.388z M15.994,42.984
		c0.145-5.08,0.92-9.924,2.225-14.369H30.8c-0.553,4.643-0.864,9.525-0.922,14.369H15.994z M29.878,46.453
		c0.058,4.908,0.373,9.85,0.943,14.547H18.268c-1.333-4.494-2.129-9.399-2.276-14.547H29.878z M37.616,4.666
		C34.68,9.19,32.541,16.621,31.264,25.14H19.367C23.138,15.018,29.74,7.447,37.616,4.666z M53.833,25.143H34.747
		c2.139-13.73,6.297-21.642,9.544-21.642C47.541,3.501,51.694,11.413,53.833,25.143z M73.945,28.615h8.288
		c1.893,4.445,3.021,9.289,3.233,14.369h-9.408C75.92,37.936,75.183,33.101,73.945,28.615z M61.744,7.388
		c8.001,3.759,14.612,10.008,18.81,17.752h-7.685C70.352,17.919,66.491,11.789,61.744,7.388z M57.783,28.615h12.581
		c1.301,4.445,2.078,9.289,2.223,14.369H58.703C58.644,38.139,58.339,33.258,57.783,28.615z M50.966,4.666
		c7.874,2.78,14.477,10.351,18.247,20.474H57.314C56.041,16.621,53.908,9.19,50.966,4.666z M33.346,42.984
		c0.06-5.245,0.392-10.05,0.917-14.369h20.054c0.525,4.316,0.859,9.123,0.917,14.369H33.346z M19.436,64.471h11.855
		c1.277,8.449,3.406,15.807,6.324,20.299C29.787,82.006,23.215,74.505,19.436,64.471z M8.124,64.471h7.655
		c2.512,7.148,6.35,13.214,11.057,17.577C18.893,78.322,12.326,72.136,8.124,64.471z M3.116,46.453h9.406
		c0.143,5.115,0.894,10.009,2.162,14.547H6.431C4.489,56.505,3.331,51.601,3.116,46.453z"/>
</g>
</svg>
