<?xml version="1.0" encoding="utf-8"?>
<!-- Generator: Adobe Illustrator 17.0.0, SVG Export Plug-In . SVG Version: 6.00 Build 0)  -->
<!DOCTYPE svg PUBLIC "-//W3C//DTD SVG 1.0//EN" "http://www.w3.org/TR/2001/REC-SVG-20010904/DTD/svg10.dtd">
<svg version="1.0" id="Layer_1" xmlns="http://www.w3.org/2000/svg" xmlns:xlink="http://www.w3.org/1999/xlink" x="0px" y="0px"
	 width="97px" height="100px" viewBox="0 0 97 100" enable-background="new 0 0 97 100" xml:space="preserve">
<g>
	
		<linearGradient id="SVGID_1_" gradientUnits="userSpaceOnUse" x1="-987.9272" y1="577.9766" x2="-947.2591" y2="577.9766" gradientTransform="matrix(0.7396 0.6731 -0.6731 0.7396 1146.8011 275.8688)">
		<stop  offset="0" style="stop-color:#FFC717"/>
		<stop  offset="0.2081" style="stop-color:#FEC318"/>
		<stop  offset="0.4099" style="stop-color:#FDB719"/>
		<stop  offset="0.6092" style="stop-color:#FAA41C"/>
		<stop  offset="0.8056" style="stop-color:#F5891F"/>
		<stop  offset="1" style="stop-color:#F06624"/>
	</linearGradient>
	<polygon fill="url(#SVGID_1_)" points="48.054,75.497 38.968,63.691 24.092,64.482 32.513,52.193 27.164,38.29 41.454,42.501 
		53.024,33.117 53.434,48.009 65.934,56.113 51.898,61.105 	"/>
	<g>
		<g>
			
				<linearGradient id="SVGID_2_" gradientUnits="userSpaceOnUse" x1="-981.8757" y1="541.5543" x2="-970.8464" y2="541.5543" gradientTransform="matrix(0.7396 0.6731 -0.6731 0.7396 1146.8011 275.8688)">
				<stop  offset="0" style="stop-color:#FFC717"/>
				<stop  offset="0.2081" style="stop-color:#FEC318"/>
				<stop  offset="0.4099" style="stop-color:#FDB719"/>
				<stop  offset="0.6092" style="stop-color:#FAA41C"/>
				<stop  offset="0.8056" style="stop-color:#F5891F"/>
				<stop  offset="1" style="stop-color:#F06624"/>
			</linearGradient>
			<path fill="url(#SVGID_2_)" d="M57.044,24.493c0,0,0.351-2.913,0.997-5.774c0.619-2.867,1.524-5.658,1.524-5.658
				c0.015-0.067,0.64-1.325,1.365-2.385c0.096,0.375,0.191,0.745,0.286,1.114c-0.267-0.268-0.448-0.725-0.4-1.105
				c0.042-0.38,0.208-0.599,0.357-0.774c0.315-0.322,0.661-0.452,0.998-0.473c0.352-0.016,0.649,0.139,0.767,0.363
				c0.062,0.171-0.009,0.257-0.068,0.33c-0.063,0.079-0.198,0.058-0.302,0.102c-0.042,0.085-0.075,0.168-0.075,0.259
				c-0.012,0.09-0.038,0.223,0.013,0.29c0.056,0.032-0.075-0.039-0.123-0.055c-0.076-0.024-0.134-0.039-0.187-0.038
				c-0.096,0-0.035,0.031,0.061-0.095l0.735-0.957l-0.158,1.737c-0.113,1.243-0.332,2.555-0.346,2.619c0,0-0.861,2.656-1.45,5.385
				c-0.615,2.723-0.949,5.496-0.949,5.496c-0.007,0.061-0.32,1.195-0.698,2.327c-0.374,1.13-0.812,2.265-1.237,2.247
				c-0.421-0.018-0.749-1.21-0.924-2.433C57.057,25.797,57.036,24.556,57.044,24.493z"/>
		</g>
		<g>
			
				<linearGradient id="SVGID_3_" gradientUnits="userSpaceOnUse" x1="-961.5658" y1="548.2333" x2="-957.9893" y2="548.2333" gradientTransform="matrix(0.7396 0.6731 -0.6731 0.7396 1146.8011 275.8688)">
				<stop  offset="0" style="stop-color:#FFC717"/>
				<stop  offset="0.2081" style="stop-color:#FEC318"/>
				<stop  offset="0.4099" style="stop-color:#FDB719"/>
				<stop  offset="0.6092" style="stop-color:#FAA41C"/>
				<stop  offset="0.8056" style="stop-color:#F5891F"/>
				<stop  offset="1" style="stop-color:#F06624"/>
			</linearGradient>
			<path fill="url(#SVGID_3_)" d="M64.589,36.464c0,0,0.247-0.334,0.642-0.815c0.402-0.476,0.962-1.089,1.567-1.658
				c0.604-0.57,1.255-1.087,1.754-1.459c0.504-0.366,0.854-0.59,0.854-0.59c0.028-0.022,0.69-0.248,1.394-0.317
				c0.703-0.077,1.432,0.018,1.604,0.399c0.177,0.391-0.194,0.977-0.554,1.5c-0.367,0.517-0.741,0.967-0.765,0.986
				c0,0-0.293,0.187-0.716,0.493c-0.418,0.313-0.964,0.746-1.471,1.224c-0.507,0.478-0.977,0.993-1.314,1.391
				c-0.331,0.404-0.538,0.683-0.538,0.683c-0.02,0.024-0.504,0.383-1.053,0.733c-0.552,0.344-1.17,0.696-1.549,0.497
				c-0.371-0.194-0.412-0.944-0.282-1.661C64.285,37.155,64.566,36.491,64.589,36.464z"/>
		</g>
		<g>
			
				<linearGradient id="SVGID_4_" gradientUnits="userSpaceOnUse" x1="-942.7592" y1="547.7086" x2="-928.1034" y2="547.7086" gradientTransform="matrix(0.7396 0.6731 -0.6731 0.7396 1146.8011 275.8688)">
				<stop  offset="0" style="stop-color:#FFC717"/>
				<stop  offset="0.2081" style="stop-color:#FEC318"/>
				<stop  offset="0.4099" style="stop-color:#FDB719"/>
				<stop  offset="0.6092" style="stop-color:#FAA41C"/>
				<stop  offset="0.8056" style="stop-color:#F5891F"/>
				<stop  offset="1" style="stop-color:#F06624"/>
			</linearGradient>
			<path fill="url(#SVGID_4_)" d="M92.475,52.072l-12.13,1.55c-0.132,0.017-5-0.054-5.107-0.894
				c-0.107-0.84,4.586-2.132,4.718-2.149l12.13-1.55c0.132-0.017,5.16,0.033,5.267,0.874C97.461,50.743,92.607,52.056,92.475,52.072
				z"/>
		</g>
		<g>
			
				<linearGradient id="SVGID_5_" gradientUnits="userSpaceOnUse" x1="-937.4476" y1="565.4426" x2="-929.6656" y2="565.4426" gradientTransform="matrix(0.7396 0.6731 -0.6731 0.7396 1146.8011 275.8688)">
				<stop  offset="0" style="stop-color:#FFC717"/>
				<stop  offset="0.2081" style="stop-color:#FEC318"/>
				<stop  offset="0.4099" style="stop-color:#FDB719"/>
				<stop  offset="0.6092" style="stop-color:#FAA41C"/>
				<stop  offset="0.8056" style="stop-color:#F5891F"/>
				<stop  offset="1" style="stop-color:#F06624"/>
			</linearGradient>
			<path fill="url(#SVGID_5_)" d="M77.288,67.919l-4.23-1.624c-0.046-0.018-1.467-1.299-1.164-2.09
				c0.304-0.791,2.217-0.792,2.263-0.775l4.23,1.624c0.046,0.018,1.523,1.32,1.219,2.111C79.303,67.957,77.334,67.937,77.288,67.919
				z"/>
		</g>
		<g>
			
				<linearGradient id="SVGID_6_" gradientUnits="userSpaceOnUse" x1="-939.0001" y1="587.3759" x2="-921.2076" y2="587.3759" gradientTransform="matrix(0.7396 0.6731 -0.6731 0.7396 1146.8011 275.8688)">
				<stop  offset="0" style="stop-color:#FFC717"/>
				<stop  offset="0.2081" style="stop-color:#FEC318"/>
				<stop  offset="0.4099" style="stop-color:#FDB719"/>
				<stop  offset="0.6092" style="stop-color:#FAA41C"/>
				<stop  offset="0.8056" style="stop-color:#F5891F"/>
				<stop  offset="1" style="stop-color:#F06624"/>
			</linearGradient>
			<path fill="url(#SVGID_6_)" d="M65.268,89.03c0,0-1.365-2.027-2.844-3.973c-1.472-1.951-3.054-3.814-3.054-3.814
				c-0.042-0.094-2.091-3.435-1.491-4.008c0.627-0.598,3.78,1.918,3.834,2.027c0,0,1.635,1.926,3.157,3.942
				c1.528,2.011,2.939,4.106,2.939,4.106c0.091,0.081,1.729,3.91,0.981,4.352C68.077,92.082,65.347,89.096,65.268,89.03z"/>
		</g>
		<g>
			
				<linearGradient id="SVGID_7_" gradientUnits="userSpaceOnUse" x1="-942.2471" y1="601.4391" x2="-936.6109" y2="601.4391" gradientTransform="matrix(0.7396 0.6731 -0.6731 0.7396 1146.8011 275.8688)">
				<stop  offset="0" style="stop-color:#FFC717"/>
				<stop  offset="0.2081" style="stop-color:#FEC318"/>
				<stop  offset="0.4099" style="stop-color:#FDB719"/>
				<stop  offset="0.6092" style="stop-color:#FAA41C"/>
				<stop  offset="0.8056" style="stop-color:#F5891F"/>
				<stop  offset="1" style="stop-color:#F06624"/>
			</linearGradient>
			<path fill="url(#SVGID_7_)" d="M46.323,90.525c0,0-0.372-0.84-0.662-1.712c-0.294-0.87-0.503-1.765-0.503-1.765
				c-0.029-0.048,0.373-1.59,1.225-1.702c0.42-0.065,0.848,0.196,1.183,0.453c0.333,0.26,0.573,0.525,0.577,0.542
				c0,0,0.177,0.76,0.427,1.498c0.246,0.74,0.562,1.453,0.562,1.453c0.006,0.016-0.021,0.381-0.126,0.799
				c-0.107,0.417-0.286,0.893-0.66,1.095C47.599,91.613,46.328,90.582,46.323,90.525z"/>
		</g>
		<g>
			
				<linearGradient id="SVGID_8_" gradientUnits="userSpaceOnUse" x1="-954.758" y1="615.557" x2="-947.3546" y2="615.557" gradientTransform="matrix(0.7396 0.6731 -0.6731 0.7396 1146.8011 275.8688)">
				<stop  offset="0" style="stop-color:#FFC717"/>
				<stop  offset="0.2081" style="stop-color:#FEC318"/>
				<stop  offset="0.4099" style="stop-color:#FDB719"/>
				<stop  offset="0.6092" style="stop-color:#FAA41C"/>
				<stop  offset="0.8056" style="stop-color:#F5891F"/>
				<stop  offset="1" style="stop-color:#F06624"/>
			</linearGradient>
			<path fill="url(#SVGID_8_)" d="M26.032,94.932l3.235-9.05c0.035-0.099,1.957-3.434,2.755-3.149
				c0.798,0.285,0.169,4.083,0.134,4.182l-3.235,9.05c-0.035,0.099-2,3.554-2.797,3.268C25.325,98.948,25.996,95.031,26.032,94.932z
				"/>
		</g>
		<g>
			
				<linearGradient id="SVGID_9_" gradientUnits="userSpaceOnUse" x1="-966.8401" y1="615.8722" x2="-962.5644" y2="615.8722" gradientTransform="matrix(0.7396 0.6731 -0.6731 0.7396 1146.8011 275.8688)">
				<stop  offset="0" style="stop-color:#FFC717"/>
				<stop  offset="0.2081" style="stop-color:#FEC318"/>
				<stop  offset="0.4099" style="stop-color:#FDB719"/>
				<stop  offset="0.6092" style="stop-color:#FAA41C"/>
				<stop  offset="0.8056" style="stop-color:#F5891F"/>
				<stop  offset="1" style="stop-color:#F06624"/>
			</linearGradient>
			<path fill="url(#SVGID_9_)" d="M16.48,83.375l1.809-4.001c0.02-0.044,1.359-1.338,2.13-0.989
				c0.772,0.349,0.685,2.209,0.665,2.253l-1.809,4.001c-0.02,0.044-1.382,1.39-2.154,1.041C16.349,85.332,16.46,83.419,16.48,83.375
				z"/>
		</g>
		<g>
			
				<linearGradient id="SVGID_10_" gradientUnits="userSpaceOnUse" x1="-978.9465" y1="615.4781" x2="-975.4427" y2="615.4781" gradientTransform="matrix(0.7396 0.6731 -0.6731 0.7396 1146.8011 275.8688)">
				<stop  offset="0" style="stop-color:#FFC717"/>
				<stop  offset="0.2081" style="stop-color:#FEC318"/>
				<stop  offset="0.4099" style="stop-color:#FDB719"/>
				<stop  offset="0.6092" style="stop-color:#FAA41C"/>
				<stop  offset="0.8056" style="stop-color:#F5891F"/>
				<stop  offset="1" style="stop-color:#F06624"/>
			</linearGradient>
			<path fill="url(#SVGID_10_)" d="M5.044,75.938l7.403-7.483c0.081-0.082,3.486-2.548,4.089-1.952
				c0.602,0.596-1.827,4.028-1.908,4.109l-7.403,7.483c-0.081,0.081-3.584,2.646-4.186,2.05C2.437,79.55,4.964,76.02,5.044,75.938z"
				/>
		</g>
		<g>
			
				<linearGradient id="SVGID_11_" gradientUnits="userSpaceOnUse" x1="-990.6335" y1="599.212" x2="-984.241" y2="599.212" gradientTransform="matrix(0.7396 0.6731 -0.6731 0.7396 1146.8011 275.8688)">
				<stop  offset="0" style="stop-color:#FFC717"/>
				<stop  offset="0.2081" style="stop-color:#FEC318"/>
				<stop  offset="0.4099" style="stop-color:#FDB719"/>
				<stop  offset="0.6092" style="stop-color:#FAA41C"/>
				<stop  offset="0.8056" style="stop-color:#F5891F"/>
				<stop  offset="1" style="stop-color:#F06624"/>
			</linearGradient>
			<path fill="url(#SVGID_11_)" d="M10.812,52.835c0,0,1.174-0.098,2.351-0.11c1.177-0.016,2.353,0.055,2.353,0.055
				c0.063-0.014,1.841,0.836,1.725,1.687c-0.05,0.422-0.526,0.751-0.981,0.992c-0.456,0.238-0.897,0.385-0.921,0.384
				c0,0-1.069-0.065-2.14-0.05c-1.071,0.01-2.138,0.1-2.138,0.1c-0.024,0.001-0.482-0.134-0.958-0.359
				c-0.475-0.228-0.974-0.543-1.034-0.964C8.93,53.721,10.749,52.822,10.812,52.835z"/>
		</g>
		<g>
			
				<linearGradient id="SVGID_12_" gradientUnits="userSpaceOnUse" x1="-1013.3809" y1="588.111" x2="-992.7637" y2="588.111" gradientTransform="matrix(0.7396 0.6731 -0.6731 0.7396 1146.8011 275.8688)">
				<stop  offset="0" style="stop-color:#FFC717"/>
				<stop  offset="0.2081" style="stop-color:#FEC318"/>
				<stop  offset="0.4099" style="stop-color:#FDB719"/>
				<stop  offset="0.6092" style="stop-color:#FAA41C"/>
				<stop  offset="0.8056" style="stop-color:#F5891F"/>
				<stop  offset="1" style="stop-color:#F06624"/>
			</linearGradient>
			<path fill="url(#SVGID_12_)" d="M5.353,31.311c0,0,2.249,1.703,4.584,3.287c2.33,1.591,4.74,3.058,4.74,3.058
				c0.084,0.086,3.588,2.917,3.196,3.647l0,0c-0.411,0.763-4.698-0.934-4.796-1.03c0,0-2.474-1.506-4.865-3.139
				c-2.396-1.626-4.705-3.374-4.705-3.374c-0.126-0.056-3.395-3.516-2.834-4.179C1.206,28.951,5.242,31.266,5.353,31.311z"/>
		</g>
		<g>
			
				<linearGradient id="SVGID_13_" gradientUnits="userSpaceOnUse" x1="-1008.7642" y1="572.2451" x2="-995.683" y2="572.2451" gradientTransform="matrix(0.7396 0.6731 -0.6731 0.7396 1146.8011 275.8688)">
				<stop  offset="0" style="stop-color:#FFC717"/>
				<stop  offset="0.2081" style="stop-color:#FEC318"/>
				<stop  offset="0.4099" style="stop-color:#FDB719"/>
				<stop  offset="0.6092" style="stop-color:#FAA41C"/>
				<stop  offset="0.8056" style="stop-color:#F5891F"/>
				<stop  offset="1" style="stop-color:#F06624"/>
			</linearGradient>
			<path fill="url(#SVGID_13_)" d="M19.348,20.742l4.529,5.676c0.049,0.062,1.298,2.727,0.635,3.256
				c-0.662,0.528-2.984-1.28-3.033-1.342l-4.529-5.676c-0.049-0.062-1.357-2.802-0.695-3.33
				C16.917,18.796,19.298,20.68,19.348,20.742z"/>
		</g>
		<g>
			
				<linearGradient id="SVGID_14_" gradientUnits="userSpaceOnUse" x1="-1010.832" y1="555.0134" x2="-990.9938" y2="555.0134" gradientTransform="matrix(0.7396 0.6731 -0.6731 0.7396 1146.8011 275.8688)">
				<stop  offset="0" style="stop-color:#FFC717"/>
				<stop  offset="0.2081" style="stop-color:#FEC318"/>
				<stop  offset="0.4099" style="stop-color:#FDB719"/>
				<stop  offset="0.6092" style="stop-color:#FAA41C"/>
				<stop  offset="0.8056" style="stop-color:#F5891F"/>
				<stop  offset="1" style="stop-color:#F06624"/>
			</linearGradient>
			<path fill="url(#SVGID_14_)" d="M32.543,19.612L30.292,5.998c-0.025-0.148-0.234-5.626,0.602-5.764
				c0.836-0.138,2.401,5.115,2.425,5.264l2.252,13.614c0.024,0.148,0.264,5.805-0.572,5.943
				C34.163,25.192,32.568,19.76,32.543,19.612z"/>
		</g>
		<g>
			
				<linearGradient id="SVGID_15_" gradientUnits="userSpaceOnUse" x1="-990.4953" y1="551.9599" x2="-984.9632" y2="551.9599" gradientTransform="matrix(0.7396 0.6731 -0.6731 0.7396 1146.8011 275.8688)">
				<stop  offset="0" style="stop-color:#FFC717"/>
				<stop  offset="0.2081" style="stop-color:#FEC318"/>
				<stop  offset="0.4099" style="stop-color:#FDB719"/>
				<stop  offset="0.6092" style="stop-color:#FAA41C"/>
				<stop  offset="0.8056" style="stop-color:#F5891F"/>
				<stop  offset="1" style="stop-color:#F06624"/>
			</linearGradient>
			<path fill="url(#SVGID_15_)" d="M43.532,21.401c0,0-0.264-0.957-0.409-1.937c-0.153-0.979-0.184-1.972-0.184-1.972
				c-0.026-0.059,0.686-1.598,1.546-1.519c0.425,0.027,0.785,0.392,1.061,0.728c0.273,0.339,0.457,0.66,0.458,0.678
				c0,0,0.026,0.816,0.152,1.623c0.12,0.808,0.337,1.595,0.337,1.595c0.004,0.018-0.073,0.389-0.229,0.805
				c-0.159,0.414-0.39,0.881-0.787,1.034c-0.393,0.152-0.889-0.068-1.276-0.364C43.812,21.78,43.537,21.422,43.532,21.401z"/>
		</g>
	</g>
</g>
</svg>
